#N canvas 42 297 893 300 12;
#X obj 58 13 notein;
#X floatatom 47 96 5 0 0 0 - - - 0;
#X obj 45 134 mtof;
#X obj 46 166 osc~;
#X obj 34 244 dac~;
#X obj 325 265 noteout;
#X floatatom 325 237 5 0 0 0 - - - 0;
#X floatatom 371 239 5 0 0 0 - - - 0;
#X obj 325 209 makenote 100 100;
#X obj 326 11 tgl 15 0 empty empty empty 17 7 0 10 #fcfcfc #000000
#000000 0 1;
#X obj 325 183 + 36;
#N canvas 0 22 450 278 (subpatch) 0;
#X array pitchclass 8 float 3;
#A 0 0 2 4 5 7 9 11 0;
#X coords 0 12 8 0 200 140 1 0 0;
#X restore 643 44 graph;
#X obj 646 251 array set pitchclass;
#X msg 647 224 0 2 4 5 7 9 11;
#X obj 325 88 random 7;
#X obj 325 117 tabread pitchclass;
#X floatatom 325 144 5 0 0 0 - - - 0;
#X obj 379 170 + 10;
#X obj 379 146 random 40;
#X msg 388 8 250;
#X msg 427 9 500;
#X obj 478 139 + 50;
#X floatatom 478 163 5 0 0 0 - - - 0;
#X obj 254 82 random 3;
#X floatatom 254 106 5 0 0 0 - - - 0;
#X obj 254 129 * 12;
#X obj 256 155 + 36;
#X obj 42 58 stripnote;
#X obj 326 32 metro 500;
#X obj 122 59 sel 0;
#X obj 122 87 bng 15 250 50 0 empty empty empty 17 7 0 10 #fcfcfc #000000
#000000;
#X obj 96 167 line~;
#X obj 48 204 *~;
#X msg 109 110 0 200;
#X msg 94 141 1 5;
#X obj 647 197 loadbang;
#X obj 204 16 ctlin;
#X floatatom 205 47 5 0 0 0 - - - 0;
#X obj 203 87 vsl 15 128 0 127 0 0 empty empty empty 0 -9 0 10 #fcfcfc
#000000 #000000 0 1;
#X obj 572 36 vsl 15 128 0 127 0 0 empty empty empty 0 -9 0 10 #fcfcfc
#000000 #000000 0 1;
#X floatatom 572 173 5 0 0 0 - - - 0;
#X obj 571 200 ctlout 7;
#X obj 478 115 random 200;
#X obj 327 57 t b b;
#X connect 0 0 27 0;
#X connect 0 1 27 1;
#X connect 0 1 29 0;
#X connect 1 0 2 0;
#X connect 2 0 3 0;
#X connect 3 0 32 0;
#X connect 6 0 5 0;
#X connect 7 0 5 1;
#X connect 8 0 6 0;
#X connect 8 1 7 0;
#X connect 9 0 28 0;
#X connect 10 0 8 0;
#X connect 13 0 12 0;
#X connect 14 0 15 0;
#X connect 15 0 16 0;
#X connect 16 0 10 0;
#X connect 17 0 8 1;
#X connect 18 0 17 0;
#X connect 19 0 28 1;
#X connect 20 0 28 1;
#X connect 21 0 22 0;
#X connect 22 0 8 2;
#X connect 23 0 24 0;
#X connect 24 0 25 0;
#X connect 25 0 26 0;
#X connect 26 0 10 1;
#X connect 27 0 1 0;
#X connect 27 0 34 0;
#X connect 28 0 43 0;
#X connect 29 0 30 0;
#X connect 30 0 33 0;
#X connect 31 0 32 1;
#X connect 32 0 4 0;
#X connect 32 0 4 1;
#X connect 33 0 31 0;
#X connect 34 0 31 0;
#X connect 35 0 13 0;
#X connect 36 0 37 0;
#X connect 37 0 38 0;
#X connect 39 0 40 0;
#X connect 40 0 41 0;
#X connect 42 0 21 0;
#X connect 43 0 14 0;
#X connect 43 1 42 0;
#X connect 43 1 18 0;
#X connect 43 1 23 0;
